<mxfile host="app.diagrams.net" modified="2024-01-05T23:59:32.670Z" agent="Mozilla/5.0 (Windows NT 10.0; Win64; x64) AppleWebKit/537.36 (KHTML, like Gecko) Chrome/120.0.0.0 Safari/537.36" etag="qtoEa0lmVkir3Gk-hNRB" version="22.1.16" type="device">
  <diagram id="NMyAsitcrVUQhma-thph" name="Page-1">
    <mxGraphModel dx="989" dy="214" grid="1" gridSize="10" guides="1" tooltips="1" connect="1" arrows="1" fold="1" page="1" pageScale="1" pageWidth="500" pageHeight="75" math="0" shadow="0">
      <root>
        <mxCell id="0" />
        <mxCell id="1" parent="0" />
        <mxCell id="s0-Jbh16jru5imCCtnIh-1" value="Stage 1 Bitstream" style="rounded=1;whiteSpace=wrap;html=1;" parent="1" vertex="1">
          <mxGeometry x="230" y="400" width="120" height="40" as="geometry" />
        </mxCell>
        <mxCell id="s0-Jbh16jru5imCCtnIh-2" value="Stage 2 Bitstream" style="rounded=1;whiteSpace=wrap;html=1;" parent="1" vertex="1">
          <mxGeometry x="230" y="320" width="120" height="70" as="geometry" />
        </mxCell>
        <mxCell id="s0-Jbh16jru5imCCtnIh-4" value="" style="shape=curlyBracket;whiteSpace=wrap;html=1;rounded=1;" parent="1" vertex="1">
          <mxGeometry x="101" y="320" width="20" height="120" as="geometry" />
        </mxCell>
        <mxCell id="s0-Jbh16jru5imCCtnIh-5" value="" style="shape=crossbar;whiteSpace=wrap;html=1;rounded=1;direction=south;" parent="1" vertex="1">
          <mxGeometry x="360" y="400" width="20" height="40" as="geometry" />
        </mxCell>
        <mxCell id="s0-Jbh16jru5imCCtnIh-7" value="&amp;lt; 120 ms to load to device" style="text;html=1;strokeColor=none;fillColor=none;align=center;verticalAlign=middle;whiteSpace=wrap;rounded=0;" parent="1" vertex="1">
          <mxGeometry x="380" y="405" width="60" height="30" as="geometry" />
        </mxCell>
        <mxCell id="s0-Jbh16jru5imCCtnIh-9" value="Complete Bitstream" style="text;html=1;strokeColor=none;fillColor=none;align=center;verticalAlign=middle;whiteSpace=wrap;rounded=0;" parent="1" vertex="1">
          <mxGeometry x="41" y="360" width="60" height="30" as="geometry" />
        </mxCell>
        <mxCell id="s0-Jbh16jru5imCCtnIh-10" value="" style="shape=curlyBracket;whiteSpace=wrap;html=1;rounded=1;" parent="1" vertex="1">
          <mxGeometry x="201" y="400" width="20" height="40" as="geometry" />
        </mxCell>
        <mxCell id="s0-Jbh16jru5imCCtnIh-11" value="Req. PCIe EP configuration" style="text;html=1;strokeColor=none;fillColor=none;align=center;verticalAlign=middle;whiteSpace=wrap;rounded=0;" parent="1" vertex="1">
          <mxGeometry x="120" y="400" width="80" height="40" as="geometry" />
        </mxCell>
        <mxCell id="s0-Jbh16jru5imCCtnIh-12" value="" style="shape=curlyBracket;whiteSpace=wrap;html=1;rounded=1;" parent="1" vertex="1">
          <mxGeometry x="200" y="320" width="20" height="70" as="geometry" />
        </mxCell>
        <mxCell id="s0-Jbh16jru5imCCtnIh-13" value="All other configuration&amp;nbsp;" style="text;html=1;strokeColor=none;fillColor=none;align=center;verticalAlign=middle;whiteSpace=wrap;rounded=0;" parent="1" vertex="1">
          <mxGeometry x="120" y="335" width="81" height="40" as="geometry" />
        </mxCell>
        <mxCell id="s0-Jbh16jru5imCCtnIh-14" value="" style="shape=crossbar;whiteSpace=wrap;html=1;rounded=1;direction=south;" parent="1" vertex="1">
          <mxGeometry x="360" y="320" width="20" height="70" as="geometry" />
        </mxCell>
        <mxCell id="s0-Jbh16jru5imCCtnIh-15" value="Loaded across PCIe link" style="text;html=1;strokeColor=none;fillColor=none;align=center;verticalAlign=middle;whiteSpace=wrap;rounded=0;" parent="1" vertex="1">
          <mxGeometry x="380" y="340" width="60" height="30" as="geometry" />
        </mxCell>
        <mxCell id="s0-Jbh16jru5imCCtnIh-16" value="Host PC" style="rounded=0;whiteSpace=wrap;html=1;fontStyle=1;fontSize=14;" parent="1" vertex="1">
          <mxGeometry x="40" y="485" width="80" height="60" as="geometry" />
        </mxCell>
        <mxCell id="s0-Jbh16jru5imCCtnIh-17" value="Versal ACAP" style="rounded=0;whiteSpace=wrap;html=1;labelPosition=left;verticalLabelPosition=middle;align=right;verticalAlign=top;horizontal=1;spacing=0;spacingRight=-90;fontStyle=1;fontSize=14;" parent="1" vertex="1">
          <mxGeometry x="181" y="460" width="259" height="180" as="geometry" />
        </mxCell>
        <mxCell id="s0-Jbh16jru5imCCtnIh-18" value="PCIe" style="shape=flexArrow;endArrow=classic;startArrow=classic;html=1;rounded=0;fontSize=12;exitX=1;exitY=0.5;exitDx=0;exitDy=0;startWidth=11.304347826086957;startSize=4.478260869565218;endWidth=11.304347826086957;endSize=4.478260869565218;labelPosition=center;verticalLabelPosition=top;align=center;verticalAlign=bottom;spacingTop=0;spacing=6;entryX=0;entryY=0.5;entryDx=0;entryDy=0;" parent="1" source="s0-Jbh16jru5imCCtnIh-16" target="s0-Jbh16jru5imCCtnIh-19" edge="1">
          <mxGeometry width="100" height="100" relative="1" as="geometry">
            <mxPoint x="91" y="720" as="sourcePoint" />
            <mxPoint x="161" y="540" as="targetPoint" />
            <Array as="points">
              <mxPoint x="161" y="515" />
            </Array>
          </mxGeometry>
        </mxCell>
        <mxCell id="s0-Jbh16jru5imCCtnIh-30" value="AXI-ST DMA" style="edgeStyle=orthogonalEdgeStyle;rounded=0;orthogonalLoop=1;jettySize=auto;html=1;exitX=1;exitY=0.25;exitDx=0;exitDy=0;entryX=0;entryY=0.5;entryDx=0;entryDy=0;fontSize=6;spacing=6;spacingTop=-2;startArrow=blockThin;startFill=1;endArrow=blockThin;endFill=1;spacingLeft=-16;" parent="1" source="s0-Jbh16jru5imCCtnIh-19" target="s0-Jbh16jru5imCCtnIh-33" edge="1">
          <mxGeometry x="0.3191" y="5" relative="1" as="geometry">
            <mxPoint x="391" y="507.5" as="targetPoint" />
            <Array as="points">
              <mxPoint x="281" y="503" />
              <mxPoint x="281" y="485" />
            </Array>
            <mxPoint as="offset" />
          </mxGeometry>
        </mxCell>
        <mxCell id="s0-Jbh16jru5imCCtnIh-19" value="CPM" style="rounded=1;whiteSpace=wrap;html=1;fontSize=14;" parent="1" vertex="1">
          <mxGeometry x="201" y="490" width="66" height="50" as="geometry" />
        </mxCell>
        <mxCell id="s0-Jbh16jru5imCCtnIh-23" value="NOC" style="rounded=1;whiteSpace=wrap;html=1;fontSize=14;rotation=0;spacingBottom=-41;arcSize=21;" parent="1" vertex="1">
          <mxGeometry x="288" y="490" width="42" height="140" as="geometry" />
        </mxCell>
        <mxCell id="s0-Jbh16jru5imCCtnIh-41" value="Ctrl/Status" style="edgeStyle=orthogonalEdgeStyle;rounded=0;orthogonalLoop=1;jettySize=auto;html=1;exitX=0.5;exitY=0;exitDx=0;exitDy=0;entryX=0.5;entryY=1;entryDx=0;entryDy=0;fontSize=7;endArrow=blockThin;endFill=1;spacingLeft=37;startArrow=blockThin;startFill=1;" parent="1" source="s0-Jbh16jru5imCCtnIh-24" target="s0-Jbh16jru5imCCtnIh-32" edge="1">
          <mxGeometry relative="1" as="geometry" />
        </mxCell>
        <mxCell id="s0-Jbh16jru5imCCtnIh-24" value="Counter" style="rounded=1;whiteSpace=wrap;html=1;fontSize=14;" parent="1" vertex="1">
          <mxGeometry x="351" y="610" width="80" height="20" as="geometry" />
        </mxCell>
        <mxCell id="s0-Jbh16jru5imCCtnIh-27" value="PMC" style="rounded=1;whiteSpace=wrap;html=1;fontSize=14;" parent="1" vertex="1">
          <mxGeometry x="201" y="550" width="66" height="80" as="geometry" />
        </mxCell>
        <mxCell id="s0-Jbh16jru5imCCtnIh-50" value="AXI-MM DMA" style="edgeStyle=elbowEdgeStyle;rounded=0;orthogonalLoop=1;jettySize=auto;html=1;exitX=1;exitY=0.5;exitDx=0;exitDy=0;entryX=1;entryY=0.75;entryDx=0;entryDy=0;labelBackgroundColor=default;fontSize=6;startArrow=blockThin;startFill=1;endArrow=none;endFill=0;spacingLeft=-43;jumpSize=6;startSize=6;sourcePerimeterSpacing=0;" parent="1" source="s0-Jbh16jru5imCCtnIh-31" target="s0-Jbh16jru5imCCtnIh-19" edge="1">
          <mxGeometry x="0.4007" y="-7" relative="1" as="geometry">
            <Array as="points">
              <mxPoint x="310" y="550" />
            </Array>
            <mxPoint as="offset" />
          </mxGeometry>
        </mxCell>
        <mxCell id="s0-Jbh16jru5imCCtnIh-31" value="&lt;font style=&quot;font-size: 11px;&quot;&gt;SBI&lt;/font&gt;" style="rounded=1;whiteSpace=wrap;html=1;fontSize=14;" parent="1" vertex="1">
          <mxGeometry x="219" y="556" width="30" height="22" as="geometry" />
        </mxCell>
        <mxCell id="s0-Jbh16jru5imCCtnIh-44" style="edgeStyle=orthogonalEdgeStyle;rounded=0;orthogonalLoop=1;jettySize=auto;html=1;exitX=0;exitY=0.5;exitDx=0;exitDy=0;entryX=0.995;entryY=0.582;entryDx=0;entryDy=0;entryPerimeter=0;labelBackgroundColor=default;fontSize=7;startArrow=blockThin;startFill=1;endArrow=none;endFill=0;" parent="1" source="s0-Jbh16jru5imCCtnIh-32" target="s0-Jbh16jru5imCCtnIh-23" edge="1">
          <mxGeometry relative="1" as="geometry" />
        </mxCell>
        <mxCell id="s0-Jbh16jru5imCCtnIh-32" value="Debug" style="rounded=1;whiteSpace=wrap;html=1;fontSize=14;" parent="1" vertex="1">
          <mxGeometry x="351" y="556" width="80" height="30" as="geometry" />
        </mxCell>
        <mxCell id="s0-Jbh16jru5imCCtnIh-33" value="Prod/Cons" style="rounded=1;whiteSpace=wrap;html=1;fontSize=14;" parent="1" vertex="1">
          <mxGeometry x="351" y="470" width="80" height="30" as="geometry" />
        </mxCell>
        <mxCell id="s0-Jbh16jru5imCCtnIh-52" style="edgeStyle=elbowEdgeStyle;rounded=0;jumpSize=6;orthogonalLoop=1;jettySize=auto;html=1;exitX=0;exitY=0.5;exitDx=0;exitDy=0;entryX=1;entryY=0.25;entryDx=0;entryDy=0;labelBackgroundColor=default;fontSize=6;startArrow=blockThin;startFill=1;endArrow=none;endFill=0;startSize=6;sourcePerimeterSpacing=0;" parent="1" source="2ewFGsmniRBexmYAnrOi-2" target="s0-Jbh16jru5imCCtnIh-23" edge="1">
          <mxGeometry relative="1" as="geometry" />
        </mxCell>
        <mxCell id="s0-Jbh16jru5imCCtnIh-34" value="BRAM" style="rounded=1;whiteSpace=wrap;html=1;fontSize=12;" parent="1" vertex="1">
          <mxGeometry x="390" y="510" width="41" height="30" as="geometry" />
        </mxCell>
        <mxCell id="2ewFGsmniRBexmYAnrOi-1" value="" style="rounded=0;whiteSpace=wrap;html=1;fillColor=none;strokeColor=#6c8ebf;" vertex="1" parent="1">
          <mxGeometry x="346" y="605" width="90" height="30" as="geometry" />
        </mxCell>
        <mxCell id="2ewFGsmniRBexmYAnrOi-4" style="edgeStyle=orthogonalEdgeStyle;rounded=0;orthogonalLoop=1;jettySize=auto;html=1;exitX=1;exitY=0.5;exitDx=0;exitDy=0;entryX=0;entryY=0.5;entryDx=0;entryDy=0;endArrow=blockThin;endFill=1;" edge="1" parent="1" source="2ewFGsmniRBexmYAnrOi-2" target="s0-Jbh16jru5imCCtnIh-34">
          <mxGeometry relative="1" as="geometry" />
        </mxCell>
        <mxCell id="2ewFGsmniRBexmYAnrOi-2" value="Reverse?" style="rounded=1;whiteSpace=wrap;html=1;fontSize=7;" vertex="1" parent="1">
          <mxGeometry x="346" y="510" width="31" height="30" as="geometry" />
        </mxCell>
        <mxCell id="2ewFGsmniRBexmYAnrOi-5" value="" style="rounded=0;whiteSpace=wrap;html=1;fillColor=none;strokeColor=#6c8ebf;" vertex="1" parent="1">
          <mxGeometry x="341.5" y="505" width="40" height="40" as="geometry" />
        </mxCell>
        <mxCell id="2ewFGsmniRBexmYAnrOi-6" value="" style="rounded=0;whiteSpace=wrap;html=1;fillColor=none;strokeColor=#6c8ebf;" vertex="1" parent="1">
          <mxGeometry x="40" y="559" width="20" height="19" as="geometry" />
        </mxCell>
        <mxCell id="2ewFGsmniRBexmYAnrOi-7" value="If DFX is enabled, this is a reconfigurable partition&amp;nbsp;" style="text;html=1;strokeColor=none;fillColor=none;align=left;verticalAlign=top;whiteSpace=wrap;rounded=0;fontSize=10;textDirection=ltr;labelPosition=center;verticalLabelPosition=middle;" vertex="1" parent="1">
          <mxGeometry x="73" y="550" width="108" height="52" as="geometry" />
        </mxCell>
        <mxCell id="2ewFGsmniRBexmYAnrOi-8" value="=" style="text;html=1;strokeColor=none;fillColor=none;align=center;verticalAlign=middle;whiteSpace=wrap;rounded=0;" vertex="1" parent="1">
          <mxGeometry x="38" y="554" width="60" height="30" as="geometry" />
        </mxCell>
      </root>
    </mxGraphModel>
  </diagram>
</mxfile>
